<svg xmlns="http://www.w3.org/2000/svg" fill="none" viewBox="0 0 513 512"><rect width="512" height="512" fill="#fff" rx="96"/><g clip-path="url(#a)"><g clip-path="url(#b)"><path fill="url(#c)" d="M256.031 48c-114.706 0-208 93.294-208 208s93.294 208 208 208 208-93.294 208-208-93.294-208-208-208m0 33.433c93.203 0 169.581 73.412 174.323 165.452.152 3.028.244 6.056.244 9.115 0 89.348-68.823 122.445-105.682 127.186-58.301 7.494-107.395-23.981-107.395-85.586 0-58.393 64.571-108.955 146.364-84.056l10.584-47.626c-29.64-14.407-61.513-20.953-92.652-20.953-119.722 0-194.602 89.042-187.69 169.887-.642.336-1.529.826-2.416 1.315C86.236 298.089 83.3 277.993 83.3 256c0-96.261 76.471-174.567 172.732-174.567"/><path fill="#000" fill-opacity=".05" d="M256.031 48c-114.706 0-208 93.294-208 208s93.294 208 208 208 208-93.294 208-208-93.294-208-208-208m0 33.433c93.203 0 169.581 73.412 174.323 165.452.152 3.028.244 6.056.244 9.115 0 89.348-68.823 122.445-105.682 127.186-58.301 7.494-107.395-23.981-107.395-85.586 0-58.393 64.571-108.955 146.364-84.056l10.584-47.626c-29.64-14.407-61.513-20.953-92.652-20.953-119.722 0-194.602 89.042-187.69 169.887-.642.336-1.529.826-2.416 1.315C86.236 298.089 83.3 277.993 83.3 256c0-96.261 76.471-174.567 172.732-174.567"/></g></g><defs><clipPath id="a"><path fill="#fff" d="M48.031 48h416v416h-416z"/></clipPath><clipPath id="b"><rect width="416" height="416" x="48.031" y="48" fill="#fff" rx="208"/></clipPath><linearGradient id="c" x1="261.274" x2="284.876" y1="467.044" y2="-13.41" gradientUnits="userSpaceOnUse"><stop stop-color="#ff101f"/><stop offset="1" stop-color="#ff5618"/></linearGradient></defs></svg>
